<?xml version="1.0" encoding="UTF-8"?>
<svg xmlns="http://www.w3.org/2000/svg" xmlns:xlink="http://www.w3.org/1999/xlink" width="150px" height="150px" viewBox="0 0 150 150" version="1.1">
<g id="surface1">
<path style=" stroke:none;fill-rule:evenodd;fill:rgb(1.960784%,13.333333%,52.54902%);fill-opacity:1;" d="M 87.539062 115.234375 L 96.269531 112.210938 L 87.914062 88.101562 L 106.382812 103.980469 L 113.253906 97.816406 L 95.5625 81.867188 L 116.390625 85.832031 L 109.59375 76.207031 L 95.707031 72.046875 L 119.8125 63.691406 L 116.785156 54.957031 L 92.675781 63.316406 L 109.375 44.027344 L 102.390625 37.976562 L 85.691406 57.269531 L 90.507812 32.214844 L 81.4375 30.46875 L 76.617188 55.523438 L 68.261719 31.417969 L 59.53125 34.445312 L 67.886719 58.546875 L 48.601562 41.847656 L 42.550781 48.835938 L 61.84375 65.535156 L 36.789062 60.722656 L 35.042969 69.792969 L 60.097656 74.613281 L 35.988281 82.96875 L 39.019531 91.695312 L 63.125 83.339844 L 51.277344 97.027344 L 53.410156 108.679688 L 70.109375 89.386719 L 65.292969 114.441406 L 74.367188 116.1875 L 79.183594 91.132812 "/>
<path style=" stroke:none;fill-rule:evenodd;fill:rgb(0%,67.843137%,73.333333%);fill-opacity:1;" d="M 41.195312 106.878906 L 48.214844 106.878906 L 48.214844 94.222656 L 41.195312 94.222656 Z M 62.117188 59.308594 L 28.882812 84.734375 L 28.882812 119.53125 L 92.164062 119.53125 L 92.164062 84.734375 Z M 62.117188 59.308594 "/>
<path style=" stroke:none;fill-rule:evenodd;fill:rgb(80.784314%,71.764706%,100%);fill-opacity:1;" d="M 118.289062 88.191406 C 118.289062 81.238281 112.648438 75.597656 105.695312 75.597656 C 102.207031 75.597656 99.050781 77.015625 96.769531 79.304688 L 92.164062 83.914062 L 87.558594 79.304688 C 85.277344 77.015625 82.121094 75.597656 78.632812 75.597656 C 71.679688 75.597656 66.039062 81.238281 66.039062 88.191406 C 66.039062 91.671875 67.453125 94.824219 69.734375 97.101562 L 92.164062 119.53125 L 114.589844 97.101562 C 116.875 94.824219 118.289062 91.671875 118.289062 88.191406 "/>
</g>
</svg>
