<?xml version="1.0" encoding="UTF-8"?>
<svg xmlns="http://www.w3.org/2000/svg" xmlns:xlink="http://www.w3.org/1999/xlink" width="150px" height="150px" viewBox="0 0 150 150" version="1.1">
<g id="surface1">
<path style=" stroke:none;fill-rule:evenodd;fill:rgb(1.960784%,13.333333%,52.54902%);fill-opacity:1;" d="M 41.570312 88.660156 C 61.359375 90.289062 79.519531 97.988281 95.71875 111.628906 C 111.425781 97.492188 129.289062 89.894531 150 88.550781 L 150 0.183594 C 130.289062 2.070312 113.953125 9.640625 100.246094 23.195312 L 96 27.394531 L 91.660156 23.367188 C 76.335938 9.144531 59.929688 1.457031 41.714844 0 Z M 41.570312 88.660156 "/>
<path style=" stroke:none;fill-rule:evenodd;fill:rgb(1.960784%,13.333333%,52.54902%);fill-opacity:1;" d="M 95.542969 150 L 92.3125 147.296875 C 78.613281 135.839844 60.367188 122.671875 40.691406 122.546875 L 40.746094 106.976562 C 61.796875 107.109375 80.6875 119.601562 95.308594 131.453125 C 110.269531 118.402344 127.320312 106.976562 149.6875 106.976562 C 149.792969 106.976562 149.890625 106.976562 149.996094 106.976562 L 149.953125 122.546875 C 149.867188 122.546875 149.777344 122.546875 149.691406 122.546875 C 127.835938 122.546875 111.917969 135.242188 98.703125 147.152344 Z M 95.542969 150 "/>
<path style=" stroke:none;fill-rule:evenodd;fill:rgb(80.784314%,71.764706%,100%);fill-opacity:1;" d="M 75.28125 89.101562 L 52.816406 89.101562 L 72.269531 74.128906 L 68.203125 64.738281 L 48.75 79.710938 L 59.980469 53.777344 L 52.9375 48.351562 L 41.707031 74.285156 L 41.707031 44.339844 L 33.574219 44.339844 L 33.574219 74.289062 L 22.339844 48.351562 L 15.296875 53.777344 L 26.527344 79.710938 L 7.078125 64.738281 L 3.007812 74.128906 L 22.460938 89.101562 L 0 89.101562 L 0 99.945312 L 22.460938 99.945312 L 3.007812 114.917969 L 7.078125 124.308594 L 26.527344 109.335938 L 15.296875 135.273438 L 22.339844 140.695312 L 33.574219 114.757812 L 33.574219 144.707031 L 41.707031 144.707031 L 41.707031 114.761719 L 52.9375 140.695312 L 59.980469 135.273438 L 48.75 109.335938 L 68.203125 124.308594 L 72.269531 114.917969 L 52.816406 99.945312 L 75.28125 99.945312 Z M 75.28125 89.101562 "/>
</g>
</svg>
