<?xml version="1.0" encoding="UTF-8"?>
<svg xmlns="http://www.w3.org/2000/svg" xmlns:xlink="http://www.w3.org/1999/xlink" width="150px" height="150px" viewBox="0 0 150 150" version="1.1">
<g id="surface1">
<path style=" stroke:none;fill-rule:evenodd;fill:rgb(71.372549%,80%,74.117647%);fill-opacity:1;" d="M 57.632812 68.570312 L 48.402344 68.570312 C 46.476562 75.414062 41.359375 80.332031 35.34375 80.332031 C 29.332031 80.332031 24.214844 75.414062 22.285156 68.570312 L 13.058594 68.570312 C 11.132812 75.414062 6.011719 80.332031 0 80.332031 L 0 90 C 7.324219 90 13.796875 85.285156 17.671875 78.113281 C 21.546875 85.285156 28.023438 90 35.34375 90 C 42.667969 90 49.144531 85.285156 53.015625 78.113281 C 56.890625 85.285156 63.367188 90 70.691406 90 L 70.691406 80.332031 C 64.675781 80.332031 59.558594 75.414062 57.632812 68.570312 Z M 57.632812 68.570312 "/>
<path style=" stroke:none;fill-rule:evenodd;fill:rgb(71.372549%,80%,74.117647%);fill-opacity:1;" d="M 57.632812 98.570312 L 48.402344 98.570312 C 46.476562 105.414062 41.359375 110.332031 35.34375 110.332031 C 29.332031 110.332031 24.214844 105.414062 22.285156 98.570312 L 13.058594 98.570312 C 11.132812 105.414062 6.011719 110.332031 0 110.332031 L 0 120 C 7.324219 120 13.796875 115.285156 17.671875 108.113281 C 21.546875 115.285156 28.023438 120 35.34375 120 C 42.667969 120 49.144531 115.285156 53.015625 108.113281 C 56.890625 115.285156 63.367188 120 70.691406 120 L 70.691406 110.332031 C 64.675781 110.332031 59.558594 105.414062 57.632812 98.570312 Z M 57.632812 98.570312 "/>
<path style=" stroke:none;fill-rule:evenodd;fill:rgb(71.372549%,80%,74.117647%);fill-opacity:1;" d="M 57.632812 128.570312 L 48.402344 128.570312 C 46.476562 135.414062 41.359375 140.332031 35.34375 140.332031 C 29.332031 140.332031 24.214844 135.414062 22.285156 128.570312 L 13.058594 128.570312 C 11.132812 135.414062 6.011719 140.332031 0 140.332031 L 0 150 C 7.324219 150 13.796875 145.285156 17.671875 138.113281 C 21.546875 145.285156 28.023438 150 35.34375 150 C 42.667969 150 49.144531 145.285156 53.015625 138.113281 C 56.890625 145.285156 63.367188 150 70.691406 150 L 70.691406 140.332031 C 64.675781 140.332031 59.558594 135.414062 57.632812 128.570312 Z M 57.632812 128.570312 "/>
<path style=" stroke:none;fill-rule:evenodd;fill:rgb(7.843137%,25.882353%,14.509804%);fill-opacity:1;" d="M 145.253906 133.175781 C 142.648438 129.890625 142.648438 124.492188 145.253906 121.203125 C 146.558594 119.558594 148.277344 118.738281 150 118.738281 L 150 103.40625 C 148.277344 103.40625 146.558594 102.585938 145.253906 100.941406 C 142.648438 97.65625 142.648438 92.257812 145.253906 88.96875 C 146.558594 87.324219 148.277344 86.503906 150 86.503906 L 150 71.976562 C 148.277344 71.976562 146.558594 71.15625 145.253906 69.511719 C 142.648438 66.226562 142.648438 60.824219 145.253906 57.535156 C 146.558594 55.894531 148.277344 55.070312 150 55.070312 L 150 40.714844 L 138.675781 40.714844 C 138.675781 42.898438 138.027344 45.078125 136.730469 46.730469 C 134.136719 50.03125 129.878906 50.03125 127.285156 46.730469 C 125.988281 45.078125 125.339844 42.898438 125.339844 40.714844 L 113.246094 40.714844 C 113.246094 42.898438 112.597656 45.078125 111.304688 46.730469 C 108.710938 50.03125 104.449219 50.03125 101.859375 46.730469 C 100.5625 45.078125 99.914062 42.898438 99.914062 40.714844 L 88.453125 40.714844 C 88.453125 42.898438 87.804688 45.078125 86.507812 46.730469 C 83.917969 50.03125 79.65625 50.03125 77.0625 46.730469 C 75.765625 45.078125 75.121094 42.898438 75.121094 40.714844 L 63.792969 40.714844 L 63.792969 55.070312 C 65.515625 55.070312 67.234375 55.894531 68.539062 57.535156 C 71.144531 60.824219 71.144531 66.226562 68.539062 69.511719 C 67.234375 71.15625 65.515625 71.976562 63.792969 71.976562 L 63.792969 86.90625 C 65.515625 86.90625 67.234375 87.726562 68.539062 89.371094 C 71.144531 92.65625 71.144531 98.058594 68.539062 101.34375 C 67.234375 102.988281 65.515625 103.808594 63.792969 103.808594 L 63.792969 118.738281 C 65.515625 118.738281 67.234375 119.558594 68.539062 121.203125 C 71.144531 124.492188 71.144531 129.890625 68.539062 133.175781 C 67.234375 134.820312 65.515625 135.640625 63.792969 135.640625 L 63.792969 150 L 75.121094 150 C 75.121094 147.816406 75.765625 145.636719 77.0625 143.984375 C 79.65625 140.683594 83.917969 140.683594 86.507812 143.984375 C 87.804688 145.636719 88.453125 147.816406 88.453125 150 L 100.230469 150 C 100.230469 147.816406 100.878906 145.636719 102.175781 143.984375 C 104.765625 140.683594 109.027344 140.683594 111.621094 143.984375 C 112.914062 145.636719 113.5625 147.816406 113.5625 150 L 125.339844 150 C 125.339844 147.816406 125.988281 145.636719 127.285156 143.984375 C 129.878906 140.683594 134.136719 140.683594 136.730469 143.984375 C 138.027344 145.636719 138.675781 147.816406 138.675781 150 L 150 150 L 150 135.640625 C 148.277344 135.640625 146.558594 134.820312 145.253906 133.175781 Z M 145.253906 133.175781 "/>
</g>
</svg>
