<?xml version="1.0" encoding="UTF-8"?>
<svg xmlns="http://www.w3.org/2000/svg" xmlns:xlink="http://www.w3.org/1999/xlink" width="195px" height="150px" viewBox="0 0 195 150" version="1.1">
<g id="surface1">
<path style=" stroke:none;fill-rule:evenodd;fill:rgb(99.607843%,54.901961%,40.784314%);fill-opacity:1;" d="M 162.507812 0 L 75.125 0 L 66.703125 20.4375 L 52.492188 20.4375 L 52.492188 54.914062 L 43.925781 75.699219 L 43.925781 149.691406 L 146.4375 149.691406 L 146.4375 109.164062 L 162.515625 109.164062 L 162.515625 149.691406 L 193.214844 149.691406 L 193.214844 75.082031 Z M 162.507812 0 "/>
<path style=" stroke:none;fill-rule:evenodd;fill:rgb(45.490196%,2.352941%,19.215686%);fill-opacity:1;" d="M 44.5625 91.546875 C 44.5625 78.71875 34.585938 68.316406 22.28125 68.316406 C 9.976562 68.316406 0 78.71875 0 91.546875 C 0 104.378906 9.976562 114.777344 22.28125 114.777344 C 34.585938 114.777344 44.5625 104.378906 44.5625 91.546875 Z M 44.5625 91.546875 "/>
<path style=" stroke:none;fill-rule:evenodd;fill:rgb(45.490196%,2.352941%,19.215686%);fill-opacity:1;" d="M 93.671875 91.546875 C 93.671875 78.71875 83.699219 68.316406 71.390625 68.316406 C 59.085938 68.316406 49.109375 78.71875 49.109375 91.546875 C 49.109375 104.378906 59.085938 114.777344 71.390625 114.777344 C 83.699219 114.777344 93.671875 104.378906 93.671875 91.546875 Z M 93.671875 91.546875 "/>
<path style=" stroke:none;fill-rule:evenodd;fill:rgb(45.490196%,2.352941%,19.215686%);fill-opacity:1;" d="M 46.855469 150 L 6.5 107.925781 L 38.015625 75.066406 L 78.371094 117.144531 Z M 46.855469 150 "/>
<path style=" stroke:none;fill-rule:evenodd;fill:rgb(45.490196%,2.352941%,19.215686%);fill-opacity:1;" d="M 15.46875 117.144531 L 55.824219 75.070312 L 87.339844 107.925781 L 46.984375 150 Z M 15.46875 117.144531 "/>
</g>
</svg>
