<?xml version="1.0" encoding="UTF-8"?>
<svg xmlns="http://www.w3.org/2000/svg" xmlns:xlink="http://www.w3.org/1999/xlink" width="150px" height="150px" viewBox="0 0 150 150" version="1.1">
<g id="surface1">
<path style=" stroke:none;fill-rule:evenodd;fill:rgb(45.098039%,2.745098%,19.215686%);fill-opacity:1;" d="M 122.773438 62.554688 L 101.132812 62.554688 L 119.875 51.738281 L 115.835938 44.742188 L 97.09375 55.558594 L 107.910156 36.820312 L 100.921875 32.78125 L 90.097656 51.527344 L 90.097656 29.882812 L 82.023438 29.882812 L 82.023438 51.527344 L 71.199219 32.78125 L 64.207031 36.820312 L 75.027344 55.558594 L 83.734375 70.632812 L 52.246094 81.453125 L 56.285156 88.449219 L 75.027344 77.628906 L 64.207031 96.367188 L 71.199219 100.40625 L 82.023438 81.667969 L 82.023438 103.304688 L 90.097656 103.304688 L 90.097656 81.667969 L 100.921875 100.40625 L 107.910156 96.367188 L 97.09375 77.628906 L 115.835938 88.449219 L 119.875 81.453125 L 101.132812 70.632812 L 122.773438 70.632812 Z M 122.773438 62.554688 "/>
<path style=" stroke:none;fill-rule:evenodd;fill:rgb(100%,54.901961%,40.784314%);fill-opacity:1;" d="M 51.574219 64.054688 L 77.042969 64.054688 L 64.253906 50.703125 Z M 38.375 64.054688 L 64.222656 36.828125 L 90.292969 64.054688 L 103.527344 64.054688 L 103.527344 111.914062 L 26.953125 111.914062 L 26.953125 64.054688 Z M 38.375 64.054688 "/>
</g>
</svg>
